<svg xmlns="http://www.w3.org/2000/svg" width="32" height="32" viewBox="0 0 32 32" fill="none">
  <g clip-path="url(#clip0_7608_865)">
    <path fill-rule="evenodd" clip-rule="evenodd" d="M17.0187 0C12.0445 0.0572941 6.99915 2.43624 3.60756 6.83045C-1.98233 14.0719 -0.964598 24.0461 5.88219 29.1104C9.23052 31.589 13.3549 32.4309 17.3495 31.7982L20.8047 20.7106C20.8912 20.4316 20.6622 20.1576 20.3645 20.185L16.2503 20.5785C15.9145 20.6109 15.6295 20.8401 15.5328 21.1565L13.8714 26.572C13.7747 26.8884 13.4897 27.1175 13.1539 27.1499L9.05751 27.541C8.76236 27.5684 8.53083 27.2944 8.61734 27.0154L17.0187 0ZM23.0946 29.7755C25.0842 28.647 26.8983 27.1026 28.3944 25.1671C33.9843 17.9256 32.964 7.95142 26.1198 2.88712C24.8171 1.92309 23.3948 1.20567 21.9089 0.727386L17.4462 15.4644C17.3622 15.7409 17.5912 16.0149 17.8863 15.9875L21.8478 15.6164C22.1837 15.584 22.4687 15.3573 22.5653 15.0409L24.0283 10.303C24.125 9.98661 24.41 9.75992 24.7458 9.72754L28.8447 9.33645C29.1399 9.30904 29.3714 9.58306 29.2849 9.86206L23.0946 29.7805V29.7755Z" fill="#FCB216"/>
  </g>
  <defs>
    <clipPath id="clip0_7608_865">
      <rect width="32" height="32" fill="white"/>
    </clipPath>
  </defs>
</svg>