<svg width="188" height="34" viewBox="0 0 188 34" fill="none" xmlns="http://www.w3.org/2000/svg">
<g clip-path="url(#clip0_10011_124789)">
<path fill-rule="evenodd" clip-rule="evenodd" d="M18.0825 0C12.7974 0.060875 7.43668 2.58851 3.83311 7.25736C-2.10614 14.9514 -1.0248 25.549 6.24991 30.9298C9.80751 33.5633 14.1896 34.4579 18.4339 33.7856L22.105 22.005C22.197 21.7085 21.9537 21.4174 21.6374 21.4465L17.266 21.8647C16.9092 21.8991 16.6064 22.1426 16.5037 22.4787L14.7384 28.2328C14.6357 28.5689 14.3329 28.8124 13.9761 28.8468L9.62368 29.2623C9.3101 29.2914 9.06409 29.0003 9.15601 28.7039L18.0825 0ZM24.5381 31.6365C26.6521 30.4375 28.5796 28.7965 30.1691 26.74C36.1084 19.0459 35.0243 8.44839 27.7523 3.06757C26.3682 2.04328 24.857 1.28102 23.2783 0.772848L18.5366 16.431C18.4474 16.7247 18.6907 17.0159 19.0043 16.9868L23.2134 16.5924C23.5703 16.558 23.873 16.3171 23.9758 15.981L25.5302 10.9469C25.6329 10.6108 25.9357 10.3699 26.2925 10.3355L30.6476 9.91997C30.9612 9.89086 31.2072 10.182 31.1153 10.4784L24.5381 31.6418V31.6365Z" fill="#FCB216"/>
</g>
<g clip-path="url(#clip1_10011_124789)">
<path d="M44.4571 25.02C42.784 24.0926 41.4549 22.7943 40.4698 21.156C39.4847 19.5022 39 17.6475 39 15.5609C39 13.4744 39.4847 11.6197 40.4698 9.96589C41.4549 8.3121 42.784 7.0138 44.4571 6.1019C46.1302 5.19 47.991 4.72632 49.9924 4.72632C51.9939 4.72632 53.8547 5.19 55.5278 6.1019C57.2009 7.0138 58.5143 8.3121 59.4838 9.95043C60.4533 11.6042 60.938 13.4589 60.938 15.5455C60.938 17.632 60.4533 19.4868 59.4838 21.1405C58.5143 22.7943 57.1852 24.0772 55.5121 25.0045C53.839 25.9319 51.9939 26.3956 49.9924 26.3956C47.991 26.3956 46.1459 25.9319 44.4728 25.0045L44.4571 25.02ZM53.5732 19.4868C54.4488 18.513 54.8867 17.1993 54.8867 15.5609C54.8867 13.9226 54.4488 12.5625 53.5732 11.5888C52.6976 10.615 51.4935 10.1359 49.9768 10.1359C48.4601 10.1359 47.2404 10.615 46.3648 11.5888C45.4891 12.5625 45.067 13.8762 45.067 15.5609C45.067 17.2456 45.5048 18.5285 46.3648 19.5022C47.2404 20.4759 48.4444 20.9551 49.9768 20.9551C51.5092 20.9551 52.6976 20.4605 53.5732 19.4868Z" fill="#FBB217"/>
<path d="M71.993 10.0587C72.9468 9.50233 73.9632 9.22412 75.0577 9.22412V15.4838H73.3846C72.0868 15.4838 71.1329 15.7311 70.5075 16.2257C69.882 16.7203 69.5693 17.6012 69.5693 18.8377V26.1948H63.6274V9.36322H69.5693V12.3308C70.2417 11.3725 71.0391 10.6152 71.993 10.0433V10.0587Z" fill="#FBB217"/>
<path d="M77.1686 13.2117C77.8097 11.9134 78.6854 10.9088 79.7956 10.2133C80.9058 9.51777 82.141 9.16229 83.5014 9.16229C84.596 9.16229 85.5654 9.39413 86.4254 9.84235C87.2854 10.2906 87.9578 10.9088 88.4425 11.6816V4H94.4157V26.1947H88.4425V23.8609C87.9734 24.6337 87.3167 25.2674 86.4723 25.7156C85.628 26.1793 84.6272 26.4111 83.4701 26.4111C82.1098 26.4111 80.8901 26.0556 79.7799 25.3601C78.6697 24.6646 77.8097 23.66 77.1686 22.3462C76.5275 21.0325 76.2148 19.5178 76.2148 17.7712C76.2148 16.0247 76.5275 14.51 77.1686 13.2117ZM87.5825 15.221C86.9883 14.6028 86.2534 14.2937 85.3778 14.2937C84.5021 14.2937 83.7516 14.6028 83.1574 15.2056C82.5632 15.8083 82.2818 16.6739 82.2818 17.7712C82.2818 18.8686 82.5789 19.7032 83.1574 20.3369C83.7516 20.9706 84.4865 21.2798 85.3778 21.2798C86.2691 21.2798 86.9883 20.9706 87.5825 20.3524C88.1767 19.7342 88.4738 18.8686 88.4738 17.7712C88.4738 16.6739 88.1767 15.8393 87.5825 15.221Z" fill="#FBB217"/>
<path d="M113.993 18.9614H102.734C102.797 19.8733 103.063 20.5688 103.516 21.0171C103.97 21.4653 104.548 21.6971 105.267 21.6971C106.252 21.6971 106.972 21.2644 107.394 20.3834H113.742C113.477 21.5426 112.976 22.5781 112.21 23.49C111.444 24.4019 110.49 25.1129 109.333 25.6384C108.176 26.1639 106.909 26.4112 105.518 26.4112C103.844 26.4112 102.343 26.0557 101.046 25.3602C99.7477 24.6647 98.7157 23.66 97.9808 22.3617C97.2459 21.0634 96.8706 19.5333 96.8706 17.7713C96.8706 16.0093 97.2302 14.4947 97.9652 13.1964C98.7001 11.9135 99.7164 10.9089 101.014 10.2134C102.312 9.51784 103.813 9.16235 105.518 9.16235C107.222 9.16235 108.676 9.50238 109.974 10.1824C111.272 10.8625 112.288 11.8362 113.007 13.1036C113.727 14.371 114.102 15.8702 114.102 17.5858C114.102 18.0495 114.071 18.5132 114.008 18.9614H113.993ZM108.004 16.1175C108.004 15.3911 107.769 14.8347 107.285 14.4174C106.8 14.0001 106.19 13.7991 105.455 13.7991C104.72 13.7991 104.126 14.0001 103.672 14.3865C103.203 14.7729 102.906 15.3447 102.766 16.1175H108.019H108.004Z" fill="#FBB217"/>
<path d="M124.591 9.33462C125.545 8.77821 126.561 8.5 127.656 8.5V14.7597H125.983C124.685 14.7597 123.731 15.007 123.106 15.5015C122.48 15.9961 122.167 16.8771 122.167 18.1136V25.4706H116.226V8.6391H122.167V11.6066C122.84 10.6484 123.637 9.89104 124.591 9.31917V9.33462Z" fill="#FBB217"/>
<path d="M147.001 5.28296V26.1949H144.234V16.7204H133.46V26.1949H130.692V5.28296H133.46V14.4638H144.234V5.28296H147.001Z" fill="white"/>
<path d="M154.726 25.4218C153.459 24.7263 152.474 23.7217 151.755 22.4388C151.035 21.1405 150.676 19.6568 150.676 17.9566C150.676 16.2564 151.051 14.7881 151.786 13.5053C152.521 12.2224 153.537 11.2178 154.804 10.5377C156.07 9.84223 157.509 9.5022 159.088 9.5022C160.667 9.5022 162.09 9.84223 163.373 10.5377C164.639 11.2333 165.655 12.207 166.39 13.4898C167.125 14.7727 167.501 16.2564 167.501 17.9566C167.501 19.6568 167.125 21.156 166.359 22.4388C165.609 23.7217 164.577 24.7263 163.279 25.4218C161.981 26.1173 160.542 26.4728 158.963 26.4728C157.384 26.4728 155.992 26.1173 154.726 25.4218ZM161.746 23.3816C162.622 22.918 163.31 22.2379 163.857 21.3105C164.389 20.3832 164.655 19.2704 164.655 17.9566C164.655 16.6428 164.389 15.5146 163.873 14.6027C163.341 13.6753 162.653 12.9952 161.809 12.547C160.965 12.0988 160.042 11.867 159.041 11.867C158.04 11.867 157.102 12.0988 156.258 12.547C155.414 12.9952 154.741 13.6753 154.241 14.6027C153.74 15.5146 153.49 16.6428 153.49 17.9566C153.49 19.2704 153.74 20.4296 154.241 21.3415C154.741 22.2688 155.398 22.9489 156.227 23.3971C157.055 23.8453 157.962 24.0772 158.963 24.0772C159.964 24.0772 160.886 23.8453 161.762 23.3816H161.746Z" fill="white"/>
<path d="M176.335 10.4296C177.414 9.79594 178.681 9.48682 180.104 9.48682C181.527 9.48682 182.918 9.8423 184.122 10.5378C185.326 11.2333 186.264 12.2225 186.952 13.4899C187.64 14.7573 187.984 16.2411 187.984 17.9103C187.984 19.5796 187.64 21.0479 186.952 22.3462C186.264 23.6445 185.311 24.6491 184.122 25.3755C182.918 26.102 181.573 26.4574 180.104 26.4574C178.634 26.4574 177.445 26.1483 176.351 25.5146C175.272 24.8809 174.443 24.0927 173.88 23.1653V34H171.113V9.76502H173.88V12.7944C174.428 11.8516 175.241 11.0633 176.32 10.4451L176.335 10.4296ZM184.419 14.68C183.919 13.7681 183.231 13.0571 182.371 12.578C181.511 12.0989 180.573 11.8516 179.541 11.8516C178.509 11.8516 177.586 12.0989 176.726 12.5935C175.866 13.0881 175.178 13.799 174.662 14.7264C174.146 15.6537 173.88 16.7357 173.88 17.9567C173.88 19.1777 174.146 20.2751 174.662 21.2179C175.178 22.1607 175.866 22.8562 176.726 23.3508C177.586 23.8454 178.524 24.0927 179.541 24.0927C180.557 24.0927 181.527 23.8454 182.371 23.3508C183.231 22.8562 183.919 22.1452 184.419 21.2179C184.92 20.2905 185.185 19.1932 185.185 17.9412C185.185 16.6893 184.935 15.6228 184.419 14.6955V14.68Z" fill="white"/>
</g>
<defs>
<clipPath id="clip0_10011_124789">
<rect width="34" height="34" fill="white"/>
</clipPath>
<clipPath id="clip1_10011_124789">
<rect width="149" height="30" fill="white" transform="translate(39 4)"/>
</clipPath>
</defs>
</svg>
